<svg width="372" height="374" viewBox="0 0 372 374" fill="none" xmlns="http://www.w3.org/2000/svg">
<path fill-rule="evenodd" clip-rule="evenodd" d="M149.153 34.939C162.916 2.36015 209.085 2.36017 222.847 34.9391L223.883 37.3911C237.243 69.0158 258.016 96.586 284.095 117.992C248.011 142.528 225.145 165.587 200.435 202.065C199.06 204.086 196.081 204.086 194.707 202.065C181.567 183.702 167.109 174.701 149.222 172.078C145.732 171.413 135.38 170.842 135.38 170.842C135.38 170.842 139.237 173.221 143.157 175.784C162.751 187.692 181.336 208.855 190.327 230.535C193.28 235.925 200.994 236.005 204.059 230.678L204.141 230.535C232.106 181.512 249.626 157.758 278.602 129.119C281.723 126.085 284.665 123.196 287.309 120.578C301.938 132.113 318.156 141.744 335.61 149.117L338.062 150.153C370.64 163.916 370.64 210.085 338.061 223.847L335.61 224.883C285.243 246.16 245.16 286.243 223.883 336.61L222.847 339.062C209.085 371.64 162.916 371.64 149.153 339.062L148.117 336.61C126.84 286.243 86.7579 246.16 36.391 224.883L33.939 223.847C1.36015 210.085 1.36017 163.916 33.9391 150.153L36.391 149.117C86.7579 127.84 126.84 87.7579 148.117 37.391L149.153 34.939ZM151.581 120.13C165.657 113.657 181.416 111.791 196.613 114.798C208.729 117.194 219.996 122.59 229.413 130.427C233.397 133.742 239.3 134.012 243.095 130.482C246.89 126.953 247.133 120.974 243.237 117.557C231.063 106.879 216.248 99.5512 200.255 96.3876C181.182 92.6148 161.405 94.9566 143.741 103.079C126.076 111.202 111.426 124.692 101.875 141.627C92.3244 158.562 88.3612 178.079 90.5498 197.398C92.7384 216.717 100.967 234.853 114.064 249.222C127.161 263.591 144.458 273.462 163.492 277.427C182.526 281.393 202.326 279.251 220.071 271.307C234.952 264.646 247.751 254.19 257.229 241.059C260.261 236.857 258.686 231.084 254.198 228.493C249.71 225.902 244.016 227.485 240.876 231.607C233.45 241.352 223.676 249.132 212.404 254.178C198.263 260.508 182.486 262.215 167.32 259.055C152.153 255.895 138.37 248.03 127.934 236.58C117.498 225.13 110.941 210.679 109.197 195.285C107.453 179.892 110.611 164.34 118.221 150.846C125.832 137.351 137.506 126.602 151.581 120.13Z" fill="url(#paint0_linear_299_522)"/>
<path d="M196.613 114.798C181.416 111.791 165.657 113.657 151.581 120.13C137.506 126.602 125.832 137.351 118.221 150.846C110.611 164.34 107.453 179.892 109.197 195.285C110.941 210.679 117.498 225.13 127.934 236.58C138.37 248.03 152.153 255.895 167.32 259.055C182.486 262.215 198.263 260.508 212.404 254.178C223.676 249.132 233.45 241.352 240.876 231.607C244.016 227.485 249.71 225.902 254.198 228.493C258.686 231.084 260.261 236.857 257.229 241.059C247.751 254.19 234.952 264.646 220.071 271.307C202.326 279.251 182.526 281.393 163.492 277.427C144.458 273.462 127.161 263.591 114.064 249.222C100.967 234.853 92.7384 216.717 90.5498 197.398C88.3612 178.079 92.3244 158.562 101.875 141.627C111.426 124.692 126.076 111.202 143.741 103.079C161.405 94.9566 181.182 92.6148 200.255 96.3876C216.248 99.5512 231.063 106.879 243.237 117.557C247.133 120.974 246.89 126.953 243.095 130.482C239.3 134.012 233.397 133.742 229.413 130.427C219.996 122.59 208.729 117.194 196.613 114.798Z" fill="white"/>
<path d="M284.33 117.832C248.11 142.428 225.199 165.508 200.435 202.065V202.065C199.06 204.086 196.081 204.086 194.707 202.065V202.065C181.566 183.702 167.108 174.701 149.221 172.078C145.732 171.413 135.38 170.843 135.38 170.843C135.38 170.843 139.237 173.221 143.157 175.784C162.751 187.692 181.336 208.855 190.327 230.535V230.535C193.28 235.925 200.994 236.005 204.058 230.678L204.141 230.535C232.106 181.512 249.626 157.758 278.602 129.119C290.732 117.327 300.166 107.724 299.829 107.724C299.492 107.724 292.416 112.273 284.33 117.832Z" fill="white"/>
<defs>
<linearGradient id="paint0_linear_299_522" x1="9.50488" y1="187" x2="362.496" y2="187" gradientUnits="userSpaceOnUse">
<stop stop-color="#1E6443"/>
<stop offset="1" stop-color="#7FB429"/>
</linearGradient>
</defs>
</svg>
