<svg width="139" height="33" viewBox="0 0 139 33" fill="none" xmlns="http://www.w3.org/2000/svg">
<path d="M18.4195 23.3702C17.5507 23.8697 16.6168 24.2715 15.6177 24.5756C14.6404 24.8579 13.5979 24.9991 12.4902 24.9991C10.883 24.9991 9.37355 24.695 7.96182 24.0869C6.55009 23.4788 5.32298 22.6426 4.28047 21.5784C3.21624 20.5358 2.38006 19.3087 1.77194 17.897C1.16381 16.4853 0.859741 14.9758 0.859741 13.3686C0.859741 11.7614 1.16381 10.2519 1.77194 8.84022C2.38006 7.40677 3.21624 6.15793 4.28047 5.09371C5.32298 4.0512 6.55009 3.22588 7.96182 2.61775C9.37355 1.9879 10.883 1.67298 12.4902 1.67298C13.5979 1.67298 14.6404 1.81415 15.6177 2.0965C16.6168 2.37884 17.5616 2.78064 18.4521 3.3019V6.95067H15.8784V4.96339C15.3354 4.72448 14.7816 4.55073 14.2169 4.44214C13.6522 4.31183 13.0766 4.24667 12.4902 4.24667C11.2522 4.24667 10.0903 4.48558 9.00433 4.96339C7.9401 5.44121 7.00619 6.09278 6.20259 6.91809C5.37727 7.76513 4.72571 8.74248 4.24789 9.85015C3.79179 10.9578 3.56374 12.1306 3.56374 13.3686C3.56374 14.6066 3.79179 15.7794 4.24789 16.8871C4.72571 17.9947 5.37727 18.9504 6.20259 19.754C7.00619 20.5793 7.9401 21.2309 9.00433 21.7087C10.0903 22.1865 11.2522 22.4254 12.4902 22.4254C13.2938 22.4254 14.0648 22.3277 14.8033 22.1322C15.5634 21.915 16.2802 21.6109 16.9534 21.22L18.4195 23.3702Z" fill="url(#paint0_linear_297_258)"/>
<path d="M27.9764 24.7385H20.744V22.1648H23.2199V2.87838H20.744V0.304688H25.9239V14.1831L25.8262 15.6491C26.304 14.5849 26.999 13.7704 27.9112 13.2057C28.8234 12.6193 29.8985 12.2935 31.1365 12.2284C32.4179 12.2284 33.4278 12.565 34.1663 13.2383C34.9047 13.9116 35.2957 14.7912 35.3391 15.8771V22.1648H37.359V24.7385H30.1266V22.1648H32.6351V17.1151C32.5917 16.5287 32.3745 16.0292 31.9835 15.6165C31.6143 15.1821 31.017 14.9432 30.1917 14.8998C29.627 14.8998 29.084 14.9975 28.5628 15.193C28.0633 15.3885 27.618 15.66 27.2271 16.0075C26.8361 16.355 26.5212 16.7676 26.2823 17.2454C26.0434 17.7232 25.9239 18.2445 25.9239 18.8092V22.1648H27.9764V24.7385Z" fill="url(#paint1_linear_297_258)"/>
<path d="M46.1576 14.8672C45.5495 14.8672 44.9957 14.9758 44.4962 15.193C44.0183 15.3885 43.6057 15.6708 43.2582 16.04C42.9976 16.3441 42.7804 16.6916 42.6066 17.0825C42.4546 17.4735 42.3677 17.897 42.346 18.3531C43.3668 17.9839 44.3767 17.6147 45.3758 17.2454C46.3966 16.8545 47.4173 16.4744 48.4381 16.1052C48.1341 15.736 47.7866 15.4428 47.3956 15.2256C47.0264 14.9867 46.6137 14.8672 46.1576 14.8672ZM50.2951 23.305C49.7521 23.848 49.1331 24.2715 48.4381 24.5756C47.7431 24.8796 46.983 25.0317 46.1576 25.0317C45.2455 25.0317 44.3876 24.8688 43.584 24.543C42.8021 24.1955 42.1179 23.7285 41.5315 23.1421C40.9451 22.5557 40.4782 21.8824 40.1307 21.1223C39.8049 20.3404 39.642 19.5042 39.642 18.6137C39.642 17.745 39.8049 16.9196 40.1307 16.1378C40.4782 15.3559 40.9451 14.6717 41.5315 14.0853C42.1179 13.5206 42.8021 13.0754 43.584 12.7496C44.3876 12.4021 45.2455 12.2284 46.1576 12.2284C46.8309 12.2284 47.4716 12.3695 48.0798 12.6519C48.7096 12.9125 49.2743 13.2817 49.7738 13.7595C50.2517 14.2374 50.6752 14.8129 51.0444 15.4862C51.4136 16.1378 51.696 16.8545 51.8914 17.6364C50.4146 18.1793 48.9377 18.7223 47.4608 19.2653C46.0056 19.8083 44.5396 20.3512 43.0627 20.8942C43.3885 21.3503 43.812 21.7195 44.3333 22.0019C44.8762 22.2625 45.4844 22.3928 46.1576 22.3928C46.6572 22.3928 47.1133 22.3059 47.5259 22.1322C47.9386 21.9584 48.3078 21.6978 48.6336 21.3503L50.2951 23.305Z" fill="url(#paint2_linear_297_258)"/>
<path d="M64.8966 23.6308C64.3319 24.0652 63.702 24.4127 63.007 24.6733C62.3337 24.9122 61.6062 25.0317 60.8243 25.0317C59.9121 25.0317 59.0542 24.8688 58.2506 24.543C57.4687 24.1955 56.7846 23.7285 56.1981 23.1421C55.6117 22.5557 55.1448 21.8824 54.7973 21.1223C54.4715 20.3621 54.3086 19.5259 54.3086 18.6137C54.3086 17.745 54.4715 16.9196 54.7973 16.1378C55.1448 15.3559 55.6117 14.6826 56.1981 14.1179C56.7846 13.5315 57.4687 13.0754 58.2506 12.7496C59.0542 12.4021 59.9121 12.2284 60.8243 12.2284C61.6279 12.2284 62.3772 12.3587 63.0722 12.6193C63.7672 12.8582 64.397 13.1949 64.9617 13.6292V17.4083H62.5509V15.2256C62.2903 15.0953 62.008 15.0084 61.7039 14.9649C61.4215 14.8998 61.1283 14.8672 60.8243 14.8672C60.303 14.8672 59.8143 14.9541 59.3582 15.1278C58.9239 15.2799 58.5438 15.4971 58.218 15.7794C57.8271 16.1269 57.523 16.5396 57.3058 17.0174C57.1103 17.4952 57.0126 18.0273 57.0126 18.6137C57.0126 19.1567 57.1103 19.6671 57.3058 20.1449C57.5013 20.6227 57.7728 21.0354 58.1203 21.3829C58.4678 21.6869 58.8696 21.9367 59.3257 22.1322C59.7818 22.3059 60.2813 22.3928 60.8243 22.3928C61.3021 22.3928 61.7365 22.3277 62.1274 22.1973C62.5401 22.067 62.9201 21.8607 63.2676 21.5784L64.8966 23.6308Z" fill="url(#paint3_linear_297_258)"/>
<path d="M67.2572 24.7385V22.1648H69.7332V2.87838H67.583V0.304688H72.4372V17.8644L75.4018 15.0953H74.1964V12.5216H80.7447V15.0953H78.7248C78.247 15.5296 77.78 15.9749 77.3239 16.431C76.8678 16.8871 76.4009 17.3323 75.9231 17.7667C76.4443 18.5051 76.9656 19.2436 77.4868 19.982C78.0298 20.6987 78.5728 21.4263 79.1157 22.1648H82.1455V24.7385H75.5973V22.1648H75.9557C75.6299 21.7304 75.3041 21.296 74.9783 20.8616C74.6525 20.4055 74.3376 19.9603 74.0335 19.5259L72.4372 21.0245V22.1648H74.4896V24.7385H67.2572Z" fill="url(#paint4_linear_297_258)"/>
<path d="M90.9529 14.8672C90.3448 14.8672 89.7909 14.9758 89.2914 15.193C88.8136 15.3885 88.4009 15.6708 88.0534 16.04C87.7928 16.3441 87.5756 16.6916 87.4018 17.0825C87.2498 17.4735 87.1629 17.897 87.1412 18.3531C88.162 17.9839 89.1719 17.6147 90.171 17.2454C91.1918 16.8545 92.2126 16.4744 93.2334 16.1052C92.9293 15.736 92.5818 15.4428 92.1909 15.2256C91.8216 14.9867 91.409 14.8672 90.9529 14.8672ZM95.0903 23.305C94.5474 23.848 93.9284 24.2715 93.2334 24.5756C92.5384 24.8796 91.7782 25.0317 90.9529 25.0317C90.0407 25.0317 89.1828 24.8688 88.3792 24.543C87.5973 24.1955 86.9132 23.7285 86.3268 23.1421C85.7403 22.5557 85.2734 21.8824 84.9259 21.1223C84.6001 20.3404 84.4372 19.5042 84.4372 18.6137C84.4372 17.745 84.6001 16.9196 84.9259 16.1378C85.2734 15.3559 85.7403 14.6717 86.3268 14.0853C86.9132 13.5206 87.5973 13.0754 88.3792 12.7496C89.1828 12.4021 90.0407 12.2284 90.9529 12.2284C91.6262 12.2284 92.2669 12.3695 92.875 12.6519C93.5049 12.9125 94.0695 13.2817 94.5691 13.7595C95.0469 14.2374 95.4704 14.8129 95.8396 15.4862C96.2089 16.1378 96.4912 16.8545 96.6867 17.6364C95.2098 18.1793 93.7329 18.7223 92.256 19.2653C90.8009 19.8083 89.3348 20.3512 87.8579 20.8942C88.1837 21.3503 88.6072 21.7195 89.1285 22.0019C89.6715 22.2625 90.2796 22.3928 90.9529 22.3928C91.4524 22.3928 91.9085 22.3059 92.3212 22.1322C92.7338 21.9584 93.1031 21.6978 93.4288 21.3503L95.0903 23.305Z" fill="url(#paint5_linear_297_258)"/>
<path d="M106.336 24.7385H99.1038V22.1648H101.58V15.0953H99.4296V12.5216H103.958L104.088 14.2156C104.132 14.7369 104.143 14.9758 104.121 14.9324C104.121 14.8889 104.143 15.1278 104.186 15.6491C104.447 15.1061 104.772 14.6283 105.163 14.2156C105.576 13.7813 106 13.4229 106.434 13.1406C106.89 12.8365 107.324 12.6084 107.737 12.4564C108.171 12.3044 108.552 12.2284 108.877 12.2284L108.682 14.8998C108.139 14.8998 107.629 14.9649 107.151 15.0953C106.695 15.2256 106.293 15.4102 105.945 15.6491C105.424 15.9966 105.011 16.4418 104.707 16.9848C104.425 17.5278 104.284 18.1359 104.284 18.8092V22.1648H106.336V24.7385Z" fill="url(#paint6_linear_297_258)"/>
<path d="M118.394 24.7385H111.162V22.1648H113.638V2.87838H111.487V0.304688H116.342V22.1648H118.394V24.7385Z" fill="url(#paint7_linear_297_258)"/>
<path d="M129.764 32.883H122.531V30.3094H125.463C125.919 29.3754 126.375 28.4415 126.832 27.5076C127.309 26.5737 127.787 25.6506 128.265 24.7385C127.44 23.1095 126.625 21.5023 125.822 19.9169C125.04 18.3314 124.236 16.7242 123.411 15.0953H120.674V12.5216H127.907V15.0953H126.18C126.81 16.2898 127.44 17.4952 128.07 18.7115C128.699 19.906 129.221 21.1114 129.633 22.3277C130.046 21.1114 130.556 19.906 131.165 18.7115C131.794 17.4952 132.424 16.2898 133.054 15.0953H131.034V12.5216H138.495V15.0953H135.823C134.542 17.6581 133.26 20.1992 131.979 22.7186C130.719 25.2163 129.449 27.7465 128.167 30.3094H129.764V32.883Z" fill="url(#paint8_linear_297_258)"/>
<defs>
<linearGradient id="paint0_linear_297_258" x1="0.859741" y1="16.5939" x2="138.495" y2="16.5939" gradientUnits="userSpaceOnUse">
<stop stop-color="#1E6443"/>
<stop offset="1" stop-color="#7FB429"/>
</linearGradient>
<linearGradient id="paint1_linear_297_258" x1="0.859741" y1="16.5939" x2="138.495" y2="16.5939" gradientUnits="userSpaceOnUse">
<stop stop-color="#1E6443"/>
<stop offset="1" stop-color="#7FB429"/>
</linearGradient>
<linearGradient id="paint2_linear_297_258" x1="0.859741" y1="16.5939" x2="138.495" y2="16.5939" gradientUnits="userSpaceOnUse">
<stop stop-color="#1E6443"/>
<stop offset="1" stop-color="#7FB429"/>
</linearGradient>
<linearGradient id="paint3_linear_297_258" x1="0.859741" y1="16.5939" x2="138.495" y2="16.5939" gradientUnits="userSpaceOnUse">
<stop stop-color="#1E6443"/>
<stop offset="1" stop-color="#7FB429"/>
</linearGradient>
<linearGradient id="paint4_linear_297_258" x1="0.859741" y1="16.5939" x2="138.495" y2="16.5939" gradientUnits="userSpaceOnUse">
<stop stop-color="#1E6443"/>
<stop offset="1" stop-color="#7FB429"/>
</linearGradient>
<linearGradient id="paint5_linear_297_258" x1="0.859741" y1="16.5939" x2="138.495" y2="16.5939" gradientUnits="userSpaceOnUse">
<stop stop-color="#1E6443"/>
<stop offset="1" stop-color="#7FB429"/>
</linearGradient>
<linearGradient id="paint6_linear_297_258" x1="0.859741" y1="16.5939" x2="138.495" y2="16.5939" gradientUnits="userSpaceOnUse">
<stop stop-color="#1E6443"/>
<stop offset="1" stop-color="#7FB429"/>
</linearGradient>
<linearGradient id="paint7_linear_297_258" x1="0.859741" y1="16.5939" x2="138.495" y2="16.5939" gradientUnits="userSpaceOnUse">
<stop stop-color="#1E6443"/>
<stop offset="1" stop-color="#7FB429"/>
</linearGradient>
<linearGradient id="paint8_linear_297_258" x1="0.859741" y1="16.5939" x2="138.495" y2="16.5939" gradientUnits="userSpaceOnUse">
<stop stop-color="#1E6443"/>
<stop offset="1" stop-color="#7FB429"/>
</linearGradient>
</defs>
</svg>
